<svg width="32" height="32" viewBox="0 0 32 32" fill="none" xmlns="http://www.w3.org/2000/svg">
<path fill-rule="evenodd" clip-rule="evenodd" d="M15.4784 3.36034C15.7986 3.16472 16.2012 3.16472 16.5213 3.36034L29.7811 11.4635C30.2524 11.7515 30.4009 12.367 30.1129 12.8383C29.825 13.3095 29.2095 13.4581 28.7382 13.1701L15.9999 5.38557L3.26158 13.1701C2.79033 13.4581 2.17484 13.3095 1.88685 12.8383C1.59886 12.367 1.74743 11.7515 2.21868 11.4635L15.4784 3.36034ZM5.68675 16.4734C6.23903 16.4734 6.68675 16.9211 6.68675 17.4734V26.7865H25.313V17.4734C25.313 16.9211 25.7608 16.4734 26.313 16.4734C26.8653 16.4734 27.313 16.9211 27.313 17.4734V26.9026C27.313 27.4022 27.1146 27.8814 26.7612 28.2347C26.4079 28.5881 25.9287 28.7865 25.4291 28.7865H6.57073C6.07107 28.7865 5.59187 28.588 5.23855 28.2347C4.88524 27.8814 4.68675 27.4022 4.68675 26.9026V17.4734C4.68675 16.9211 5.13446 16.4734 5.68675 16.4734ZM12.0533 21.8933C12.0533 21.341 12.501 20.8933 13.0533 20.8933H18.9465C19.4988 20.8933 19.9465 21.341 19.9465 21.8933C19.9465 22.4456 19.4988 22.8933 18.9465 22.8933H13.0533C12.501 22.8933 12.0533 22.4456 12.0533 21.8933Z" fill="#232323"/>
</svg>
