<svg width="24" height="24" viewBox="0 0 24 24" fill="none" xmlns="http://www.w3.org/2000/svg">
<path fill-rule="evenodd" clip-rule="evenodd" d="M15.5005 2.68188H20.1077C20.4124 2.68219 20.7078 2.79031 20.9404 2.9871C21.173 3.18389 21.3285 3.45664 21.3793 3.75705L21.3795 3.75849L22.0529 7.79202C22.0893 7.9877 22.0765 8.18945 22.0153 8.37902C21.9528 8.57271 21.842 8.74729 21.6933 8.88626L21.6856 8.8935L21.6776 8.90051C20.9818 9.51328 20.0862 9.85081 19.159 9.84967C18.2821 9.84953 17.5622 9.55763 17.0718 9.27737C16.825 9.13636 16.6301 8.9948 16.4943 8.88622C16.4263 8.83176 16.3724 8.78507 16.3338 8.75017C16.3145 8.73271 16.2989 8.71814 16.2871 8.70696L16.2724 8.69278L16.2672 8.68771L16.2652 8.68569L16.2643 8.68481L16.2635 8.68402L16.0826 8.5031L15.5005 2.68188ZM17.4547 7.81709C17.5388 7.88034 17.6494 7.95635 17.783 8.0327C18.1287 8.23023 18.6033 8.41611 19.1596 8.41611C19.6897 8.41681 20.2041 8.23987 20.6201 7.91582L19.9857 4.11544H17.0846L17.4547 7.81709Z" fill="#232323"/>
<path fill-rule="evenodd" clip-rule="evenodd" d="M8.44678 2.68188H3.83957C3.5349 2.68219 3.23944 2.79031 3.00684 2.9871C2.77423 3.18389 2.61878 3.45664 2.568 3.75705L2.56776 3.75849L1.89439 7.79202C1.85793 7.9877 1.87081 8.18945 1.93196 8.37902C1.99444 8.57271 2.10526 8.74729 2.25395 8.88626L2.2617 8.8935L2.26966 8.90051C2.96546 9.51328 3.86111 9.85081 4.78826 9.84967C5.66515 9.84953 6.38502 9.55763 6.87547 9.27737C7.12224 9.13636 7.31721 8.9948 7.45293 8.88622C7.52102 8.83176 7.57484 8.78507 7.61348 8.75017C7.63281 8.73271 7.64841 8.71814 7.66014 8.70696L7.67485 8.69278L7.68003 8.68771L7.68206 8.68569L7.68294 8.68481L7.68373 8.68402L7.86466 8.5031L8.44678 2.68188ZM6.49255 7.81709C6.40845 7.88034 6.29783 7.95635 6.16423 8.0327C5.81855 8.23023 5.34401 8.41611 4.78763 8.41611C4.2576 8.41681 3.74312 8.23987 3.32712 7.91582L3.96157 4.11544H6.86272L6.49255 7.81709Z" fill="#232323"/>
<path fill-rule="evenodd" clip-rule="evenodd" d="M11.2754 2.68188H16.9415L17.5177 8.44384L17.2775 8.68402L16.7707 8.17718C17.2775 8.68402 17.2775 8.68402 17.2775 8.68402L17.2767 8.68481L17.2759 8.68569L17.2738 8.6877L17.2686 8.69278L17.2539 8.70696C17.2422 8.71814 17.2266 8.7327 17.2073 8.75017C17.1686 8.78507 17.1148 8.83176 17.0467 8.88622C16.911 8.9948 16.716 9.13636 16.4693 9.27737C15.9787 9.55769 15.2586 9.84967 14.3814 9.84967C13.5043 9.84967 12.7842 9.55769 12.2936 9.27737C12.0468 9.13636 11.8519 8.9948 11.7161 8.88622C11.648 8.83176 11.5942 8.78507 11.5556 8.75017C11.5362 8.7327 11.5207 8.71814 11.5089 8.70696L11.4942 8.69278L11.489 8.6877L11.487 8.68569L11.4861 8.68481L11.489 8.6877L11.4853 8.68402L11.2754 8.47408V2.68188ZM12.7089 7.84113C12.7883 7.89916 12.8878 7.9658 13.0048 8.0327C13.3505 8.23023 13.8251 8.41611 14.3814 8.41611C14.9378 8.41611 15.4123 8.23023 15.758 8.0327C15.8586 7.97521 15.9462 7.91791 16.0192 7.86611L15.6442 4.11544H12.7089V7.84113ZM16.2653 7.66887C16.2668 7.66746 16.2672 7.66707 16.2672 7.66707L16.2662 7.66805L16.2653 7.66887ZM12.4976 7.66887L12.4957 7.66702L12.4967 7.66805L12.4976 7.66887Z" fill="#232323"/>
<path fill-rule="evenodd" clip-rule="evenodd" d="M7.04299 2.68188H12.7091V8.47408L12.4992 8.68402L12.4984 8.68481L12.4975 8.68569L12.4955 8.6877L12.4903 8.69278L12.4756 8.70696C12.4638 8.71814 12.4483 8.7327 12.4289 8.75017C12.3903 8.78507 12.3365 8.83176 12.2684 8.88622C12.1327 8.9948 11.9377 9.13636 11.6909 9.27737C11.2003 9.55769 10.4803 9.84967 9.60308 9.84967C8.7259 9.84967 8.0058 9.55769 7.51524 9.27737C7.26847 9.13636 7.0735 8.9948 6.93778 8.88622C6.86969 8.83176 6.81587 8.78507 6.77723 8.75017C6.7579 8.7327 6.7423 8.71814 6.73057 8.70696L6.71586 8.69278L6.71068 8.6877L6.70865 8.68569L6.70777 8.68481L6.70698 8.68402L6.4668 8.44384L7.04299 2.68188ZM7.96528 7.86611C8.03831 7.91791 8.12588 7.97521 8.22648 8.0327C8.57216 8.23023 9.0467 8.41611 9.60308 8.41611C10.1595 8.41611 10.634 8.23023 10.9797 8.0327C11.0967 7.9658 11.1962 7.89916 11.2756 7.84113V4.11544H8.34034L7.96528 7.86611ZM11.4869 7.66887C11.4884 7.66746 11.4888 7.66707 11.4888 7.66707L11.4878 7.66805L11.4869 7.66887ZM7.71923 7.66887L7.7173 7.66702L7.71834 7.66805L7.71923 7.66887Z" fill="#232323"/>
<path fill-rule="evenodd" clip-rule="evenodd" d="M2.68066 18.6899V9.13281H4.11422V18.6899C4.11422 19.0067 4.24008 19.3105 4.46412 19.5346C4.68816 19.7586 4.99202 19.8845 5.30885 19.8845H18.6887C19.0055 19.8845 19.3094 19.7586 19.5334 19.5346C19.7575 19.3105 19.8833 19.0067 19.8833 18.6899V9.13281H21.3169V18.6899C21.3169 19.3869 21.04 20.0554 20.5471 20.5483C20.0542 21.0411 19.3857 21.318 18.6887 21.318H5.30885C4.61181 21.318 3.94332 21.0411 3.45044 20.5483C2.95756 20.0554 2.68066 19.3869 2.68066 18.6899Z" fill="#232323"/>
<path fill-rule="evenodd" clip-rule="evenodd" d="M9.18579 13.0088C9.67867 12.5159 10.3472 12.239 11.0442 12.239H12.9556C13.6526 12.239 14.3211 12.5159 14.814 13.0088C15.3069 13.5017 15.5838 14.1702 15.5838 14.8672V20.6014H14.1502V14.8672C14.1502 14.5504 14.0244 14.2465 13.8003 14.0225C13.5763 13.7984 13.2724 13.6726 12.9556 13.6726H11.0442C10.7274 13.6726 10.4235 13.7984 10.1995 14.0225C9.97543 14.2465 9.84957 14.5504 9.84957 14.8672V20.6014H8.41602V14.8672C8.41602 14.1702 8.69291 13.5017 9.18579 13.0088Z" fill="#232323"/>
</svg>
