<svg width="24" height="24" viewBox="0 0 24 24" fill="none" xmlns="http://www.w3.org/2000/svg">
<path fill-rule="evenodd" clip-rule="evenodd" d="M11.4697 2.46967C11.7626 2.17678 12.2374 2.17678 12.5303 2.46967L16.0303 5.96967C16.3232 6.26256 16.3232 6.73744 16.0303 7.03033C15.7374 7.32322 15.2626 7.32322 14.9697 7.03033L12.75 4.81066V15C12.75 15.4142 12.4142 15.75 12 15.75C11.5858 15.75 11.25 15.4142 11.25 15V4.81066L9.03033 7.03033C8.73744 7.32322 8.26256 7.32322 7.96967 7.03033C7.67678 6.73744 7.67678 6.26256 7.96967 5.96967L11.4697 2.46967ZM4 12.25C4.41421 12.25 4.75 12.5858 4.75 13V19C4.75 19.3315 4.8817 19.6495 5.11612 19.8839C5.35054 20.1183 5.66848 20.25 6 20.25H18C18.3315 20.25 18.6495 20.1183 18.8839 19.8839C19.1183 19.6495 19.25 19.3315 19.25 19V13C19.25 12.5858 19.5858 12.25 20 12.25C20.4142 12.25 20.75 12.5858 20.75 13V19C20.75 19.7293 20.4603 20.4288 19.9445 20.9445C19.4288 21.4603 18.7293 21.75 18 21.75H6C5.27065 21.75 4.57118 21.4603 4.05546 20.9445C3.53973 20.4288 3.25 19.7293 3.25 19V13C3.25 12.5858 3.58579 12.25 4 12.25Z" fill="#000000"/>
</svg>
