<svg width="24" height="24" viewBox="0 0 24 24" fill="none" xmlns="http://www.w3.org/2000/svg">
<g clip-path="url(#clip0_1361_5182)">
<path d="M6.8 8C6.48174 8 6.17652 7.87357 5.95147 7.64853C5.72643 7.42348 5.6 7.11826 5.6 6.8C5.6 6.48174 5.72643 6.17652 5.95147 5.95147C6.17652 5.72643 6.48174 5.6 6.8 5.6C7.11826 5.6 7.42348 5.72643 7.64853 5.95147C7.87357 6.17652 8 6.48174 8 6.8C8 7.11826 7.87357 7.42348 7.64853 7.64853C7.42348 7.87357 7.11826 8 6.8 8ZM19.528 11.664L12.328 4.464C12.04 4.176 11.64 4 11.2 4H5.6C4.712 4 4 4.712 4 5.6V11.2C4 11.64 4.176 12.04 4.472 12.328L11.664 19.528C11.96 19.816 12.36 20 12.8 20C13.24 20 13.64 19.816 13.928 19.528L19.528 13.928C19.824 13.64 20 13.24 20 12.8C20 12.352 19.816 11.952 19.528 11.664Z" fill="#000"/>
</g>
<defs>
<clipPath id="clip0_1361_5182">
<rect width="24" height="24" fill="white"/>
</clipPath>
</defs>
</svg>
