<svg width="24" height="24" viewBox="0 0 24 24" fill="none" xmlns="http://www.w3.org/2000/svg">
<path d="M12 21.001C16.9707 21.001 21 16.9717 21 12.001C21 7.03028 16.9707 3.00098 12 3.00098C7.0293 3.00098 3 7.03028 3 12.001C3 16.9717 7.0293 21.001 12 21.001Z" fill="#35C95A" stroke="#35C95A" stroke-width="1.5" stroke-linecap="round" stroke-linejoin="round"/>
<path fill-rule="evenodd" clip-rule="evenodd" d="M17.5303 7.97065C17.8232 8.26354 17.8232 8.73841 17.5303 9.03131L10.5303 16.0313C10.2374 16.3242 9.76256 16.3242 9.46967 16.0313L6.46967 13.0313C6.17678 12.7384 6.17678 12.2635 6.46967 11.9706C6.76256 11.6778 7.23744 11.6778 7.53033 11.9706L10 14.4403L16.4697 7.97065C16.7626 7.67775 17.2374 7.67775 17.5303 7.97065Z" fill="white"/>
</svg>
