<svg width="20" height="20" viewBox="0 0 20 20" fill="none" xmlns="http://www.w3.org/2000/svg">
<g clip-path="url(#clip0_765_5315)">
<path fill-rule="evenodd" clip-rule="evenodd" d="M8.59487 17.1233H3.49793C3.54302 17.0411 3.59636 16.9563 3.65852 16.8727C3.90903 16.5355 4.17967 16.3784 4.40567 16.3783L7.6338 16.3785C7.86071 16.3785 8.15446 16.5434 8.43058 16.889C8.49125 16.9649 8.54632 17.0441 8.59487 17.1233ZM4.40567 15.2117C3.64422 15.2117 3.06975 15.7089 2.72206 16.1769C2.47924 16.5037 2.28625 16.8962 2.19306 17.2629H1.86019C1.53802 17.2629 1.27686 17.524 1.27686 17.8462C1.27686 18.1684 1.53848 18.4295 1.86064 18.4295H10.1502C10.4724 18.4295 10.7336 18.1684 10.7336 17.8462C10.7336 17.524 10.4724 17.2629 10.1502 17.2629H9.92486C9.89231 17.1454 9.84991 17.0301 9.8026 16.9212C9.69184 16.6663 9.53477 16.402 9.34204 16.1607C8.97495 15.7013 8.38175 15.2119 7.6338 15.2119L4.40567 15.2117Z" fill="white"/>
<path fill-rule="evenodd" clip-rule="evenodd" d="M3.91446 10.1916C3.27431 9.55141 3.27431 8.51353 3.91446 7.87338C4.31668 7.47116 4.87592 7.32166 5.39486 7.42489L9.3383 3.48144C9.23521 2.9626 9.38473 2.40352 9.78686 2.00139C10.427 1.36124 11.4649 1.36124 12.105 2.00139L15.0157 4.91208C15.6559 5.55223 15.6559 6.59012 15.0157 7.23026C14.6135 7.63253 14.0542 7.78201 13.5352 7.67872L12.7897 8.42418L17.9036 13.2338C18.7046 13.987 18.724 15.2535 17.9465 16.0309C17.1677 16.8097 15.8987 16.7888 15.1461 15.9847L10.3517 10.8622L9.59186 11.622C9.69502 12.1409 9.54551 12.7001 9.14334 13.1023C8.50319 13.7424 7.4653 13.7424 6.82515 13.1023L3.91446 10.1916ZM4.73942 8.69834C4.55488 8.88287 4.55488 9.18207 4.73942 9.3666L7.65011 12.2773C7.83465 12.4618 8.13384 12.4618 8.31838 12.2773C8.50292 12.0928 8.50292 11.7936 8.31838 11.609L5.40769 8.69834C5.22315 8.5138 4.92396 8.5138 4.73942 8.69834ZM10.6118 3.49462C10.4273 3.31008 10.4273 3.01088 10.6118 2.82635C10.7964 2.64181 11.0955 2.64181 11.2801 2.82635L14.1908 5.73704C14.3753 5.92157 14.3753 6.22077 14.1908 6.40531C14.0062 6.58984 13.707 6.58984 13.5225 6.40531L10.6118 3.49462ZM11.186 10.0464L11.8836 10.7917L12.7175 9.95782L11.9739 9.25847L11.186 10.0464ZM15.9979 15.1874L12.6813 11.6439L13.5677 10.7575L17.1043 14.0836C17.4257 14.3859 17.4335 14.894 17.1215 15.206C16.8091 15.5185 16.2999 15.5101 15.9979 15.1874ZM8.96172 10.6022L6.41456 8.05509L9.96818 4.50147L12.5153 7.04863L8.96172 10.6022Z" fill="white"/>
</g>
<defs>
<clipPath id="clip0_765_5315">
<rect width="20" height="20" fill="white"/>
</clipPath>
</defs>
</svg>
