<svg xmlns="http://www.w3.org/2000/svg" width="20" height="20" fill="none"><circle cx="10" cy="10" r="10" fill="#fff"/><path fill="#232323" d="M16.515 9.513h-.67v5.29c0 .17.122.364.335.364.212 0 .335-.193.335-.364v-5.29Z"/><path fill="#232323" fill-rule="evenodd" d="M10.742 7.379c0-.849-.212-1.856-.742-2.546v6.47s.796 1.432 2.758 1.432S16.576 11.144 17 8.492c-.707-.46-2.694-1.22-4.985-.583.318-.371.743-1.008.902-1.803-.796.212-1.856.795-2.175 1.273Zm-1.485 0c0-.849.212-1.856.743-2.546v6.47s-.796 1.432-2.758 1.432S3.424 11.144 3 8.492c.707-.46 2.694-1.22 4.985-.583-.319-.371-.743-1.008-.902-1.803.795.212 1.856.795 2.174 1.273Z" clip-rule="evenodd"/><path fill="#fff" d="M8.568 10.56c-.265-.6-1.262-1.58-3.129-.689.371 1.273 2.28 1.644 3.129.69ZM11.378 10.56c.265-.6 1.262-1.58 3.129-.689-.371 1.273-2.28 1.644-3.129.69Z"/></svg>