<svg width="24" height="24" viewBox="0 0 24 24" fill="none" xmlns="http://www.w3.org/2000/svg">
<path fill-rule="evenodd" clip-rule="evenodd" d="M3 12C3 7.023 7.023 3 12 3C16.977 3 21 7.023 21 12C21 16.977 16.977 21 12 21C7.023 21 3 16.977 3 12ZM12 10.731L13.6965 9.0345C14.0469 8.68407 14.6151 8.68408 14.9655 9.0345C15.3159 9.38492 15.3159 9.95307 14.9655 10.3035L13.269 12L14.9655 13.6965C15.3159 14.0469 15.3159 14.6151 14.9655 14.9655C14.6151 15.3159 14.0469 15.3159 13.6965 14.9655L12 13.269L10.3035 14.9655C9.95307 15.3159 9.38492 15.3159 9.0345 14.9655C8.68408 14.6151 8.68407 14.0469 9.0345 13.6965L10.731 12L9.0345 10.3035C8.68407 9.95307 8.68408 9.38492 9.0345 9.0345C9.38492 8.68408 9.95307 8.68407 10.3035 9.0345L12 10.731Z" fill="#C2C2C2"/>
</svg>
