<svg width="16" height="16" viewBox="0 0 16 16" fill="none" xmlns="http://www.w3.org/2000/svg">
    <g clip-path="url(#clip0_749_8445)">
        <g clip-path="url(#clip1_749_8445)">
            <circle cx="7.99998" cy="7.99992" r="6.66667" fill="#232323"/>
            <path fill-rule="evenodd" clip-rule="evenodd" d="M8 3.5C8.27614 3.5 8.5 3.72386 8.5 4V7.5H12C12.2761 7.5 12.5 7.72386 12.5 8C12.5 8.27614 12.2761 8.5 12 8.5H8C7.72386 8.5 7.5 8.27614 7.5 8V4C7.5 3.72386 7.72386 3.5 8 3.5Z" fill="white"/>
            <path fill-rule="evenodd" clip-rule="evenodd" d="M0.833313 7.99992C0.833313 4.04178 4.04184 0.833252 7.99998 0.833252C11.9581 0.833252 15.1666 4.04178 15.1666 7.99992C15.1666 11.9581 11.9581 15.1666 7.99998 15.1666C4.04184 15.1666 0.833313 11.9581 0.833313 7.99992ZM7.99998 1.83325C4.59412 1.83325 1.83331 4.59406 1.83331 7.99992C1.83331 11.4058 4.59412 14.1666 7.99998 14.1666C11.4058 14.1666 14.1666 11.4058 14.1666 7.99992C14.1666 4.59406 11.4058 1.83325 7.99998 1.83325Z" fill="#232323"/>
        </g>
    </g>
    <defs>
        <clipPath id="clip0_749_8445">
            <rect width="16" height="16" fill="white"/>
        </clipPath>
        <clipPath id="clip1_749_8445">
            <rect width="16" height="16" fill="white"/>
        </clipPath>
    </defs>
</svg>
