<svg width="24" height="24" viewBox="0 0 24 24" fill="none" xmlns="http://www.w3.org/2000/svg">
<path fill-rule="evenodd" clip-rule="evenodd" d="M6.38533 7.25C6.3853 7.25 6.38536 7.25 6.38533 7.25H16.9542C17.6107 7.25058 18.246 7.48599 18.7441 7.91368C19.2421 8.34138 19.5707 8.93314 19.6705 9.582L20.4105 14.3858C20.4736 14.7952 20.1928 15.1782 19.7834 15.2413C19.374 15.3043 18.991 15.0236 18.928 14.6142L18.188 9.81018C18.1426 9.51525 17.9932 9.24608 17.7668 9.05167C17.5405 8.85733 17.2522 8.75033 16.9539 8.75H6.38524C6.08662 8.74996 5.79776 8.85683 5.57112 9.05127C5.34447 9.2457 5.19491 9.51485 5.14952 9.81L3.76452 18.81C3.76452 18.81 3.76453 18.81 3.76452 18.81C3.73714 18.9881 3.74859 19.1701 3.79809 19.3434C3.8476 19.5167 3.934 19.6772 4.05137 19.814C4.16873 19.9508 4.31428 20.0606 4.47805 20.1358C4.64182 20.2111 4.81992 20.25 5.00015 20.25H11.6692C12.0835 20.25 12.4192 20.5858 12.4192 21C12.4192 21.4142 12.0835 21.75 11.6692 21.75H5.00033C5.0003 21.75 5.00036 21.75 5.00033 21.75C4.60385 21.75 4.21197 21.6643 3.85171 21.4988C3.49143 21.3332 3.17121 21.0917 2.913 20.7908C2.6548 20.4899 2.46472 20.1367 2.3558 19.7554C2.24688 19.3742 2.22169 18.9739 2.28195 18.582L3.66695 9.582C3.66695 9.58203 3.66696 9.58198 3.66695 9.582C3.76683 8.9327 4.09585 8.34053 4.59445 7.91279C5.09306 7.48506 5.7284 7.24994 6.38533 7.25Z" fill="#000"/>
<path fill-rule="evenodd" clip-rule="evenodd" d="M9.72489 3.05546C10.2406 2.53973 10.9401 2.25 11.6694 2.25C12.3988 2.25 13.0983 2.53973 13.614 3.05546C14.1297 3.57118 14.4194 4.27065 14.4194 5C14.4194 5.41421 14.0836 5.75 13.6694 5.75C13.2552 5.75 12.9194 5.41421 12.9194 5C12.9194 4.66848 12.7877 4.35054 12.5533 4.11612C12.3189 3.8817 12.001 3.75 11.6694 3.75C11.3379 3.75 11.02 3.8817 10.7856 4.11612C10.5511 4.35054 10.4194 4.66848 10.4194 5C10.4194 5.41421 10.0836 5.75 9.66943 5.75C9.25522 5.75 8.91943 5.41421 8.91943 5C8.91943 4.27065 9.20917 3.57118 9.72489 3.05546ZM22.1998 16.4697C22.4927 16.7626 22.4927 17.2374 22.1998 17.5303L17.1998 22.5303C16.9069 22.8232 16.432 22.8232 16.1391 22.5303L13.1391 19.5303C12.8462 19.2374 12.8462 18.7626 13.1391 18.4697C13.432 18.1768 13.9069 18.1768 14.1998 18.4697L16.6694 20.9393L21.1391 16.4697C21.432 16.1768 21.9069 16.1768 22.1998 16.4697Z" fill="#000"/>
</svg>
