<svg width="52" height="52" viewBox="0 0 52 52" fill="none" xmlns="http://www.w3.org/2000/svg">
<path d="M26.4028 10.104L49.3863 19.8686L45.5677 35.7163L26.4028 40.7313L6.16397 35.7163L2.58105 19.8686L26.4028 10.104Z" fill="#EDBE56"/>
<rect x="9.1875" y="3" width="33.5951" height="38.546" rx="1" fill="#E7E9ED"/>
<rect x="12.043" y="6.27734" width="27.8818" height="31.9908" rx="1" fill="#F6F7FA"/>
<path d="M2.6123 19.9077L42.7437 48.9996H6.6123C4.40316 48.9996 2.6123 47.2087 2.6123 44.9996V19.9077Z" fill="#F7D067"/>
<path d="M49.4199 19.9077L7.66923 48.9996H45.4199C47.6291 48.9996 49.4199 47.2087 49.4199 44.9996V19.9077Z" fill="#F7D067"/>
<mask id="mask0_6862_9249" style="mask-type:alpha" maskUnits="userSpaceOnUse" x="2" y="28" width="48" height="21">
<path d="M25.5533 28H2.6123V44.9996C2.6123 47.2087 4.40316 48.9996 6.6123 48.9996H45.4199C47.6291 48.9996 49.4199 47.2087 49.4199 44.9996V28H25.5533Z" fill="#F7D067"/>
</mask>
<g mask="url(#mask0_6862_9249)">
<path d="M25.7248 29.499L1.55469 49.0014H50.4783L25.7248 29.499Z" fill="#EDBE56"/>
</g>
<path d="M25.9706 25.4179C26.5527 25.4179 27.0082 24.2284 27.565 24.1019C28.1471 23.9753 29.0581 24.8105 29.5643 24.5321C30.0705 24.2537 29.9186 23.0136 30.3488 22.634C30.7791 22.2544 31.9938 22.5328 32.3228 22.052C32.6265 21.5711 31.8673 20.5841 32.0444 20.0273C32.1963 19.4959 33.3857 19.0657 33.3857 18.4836C33.3857 17.9015 32.1963 17.4713 32.0444 16.9398C31.8673 16.3831 32.6518 15.3961 32.3228 14.9152C32.0191 14.4344 30.7791 14.7128 30.3488 14.3331C29.9186 13.9535 30.0958 12.7135 29.5643 12.4351C29.0581 12.182 28.1218 13.0172 27.565 12.8653C27.0082 12.7388 26.578 11.5493 25.9959 11.5493C25.4139 11.5493 24.9583 12.7388 24.4016 12.8653C23.8195 12.9918 22.9084 12.1567 22.4023 12.4351C21.8961 12.7135 22.048 13.9535 21.6177 14.3331C21.1875 14.7128 19.9727 14.4344 19.6437 14.9152C19.34 15.3961 20.0993 16.3831 19.9221 16.9398C19.7703 17.4713 18.5808 17.9015 18.5808 18.4836C18.5808 19.0657 19.7703 19.4959 19.9221 20.0273C20.0993 20.5841 19.3147 21.5711 19.6184 22.052C19.9221 22.5328 21.1622 22.2544 21.5924 22.634C22.0226 23.0136 21.8455 24.2537 22.377 24.5321C22.8831 24.7852 23.8195 23.95 24.3762 24.1019C24.9583 24.2284 25.3886 25.4179 25.9706 25.4179Z" fill="#6FD38C"/>
<path fill-rule="evenodd" clip-rule="evenodd" d="M29.0722 16.1621C28.7761 15.8659 28.2959 15.8659 27.9998 16.1621L24.9654 19.1965L23.9713 18.2024C23.6752 17.9063 23.195 17.9063 22.8989 18.2024C22.6027 18.4986 22.6027 18.9787 22.8989 19.2749L24.4291 20.8051L24.6744 20.5599L24.4291 20.8051C24.7253 21.1013 25.2054 21.1013 25.5016 20.8051L29.0722 17.2345C29.3684 16.9383 29.3684 16.4582 29.0722 16.1621Z" fill="white"/>
</svg>
