<svg width="20" height="20" viewBox="0 0 20 20" fill="none" xmlns="http://www.w3.org/2000/svg">
    <path d="M14.9997 6.66634H14.1663V4.99967C14.1663 2.69967 12.2997 0.833008 9.99967 0.833008C7.69967 0.833008 5.83301 2.69967 5.83301 4.99967V6.66634H4.99967C4.08301 6.66634 3.33301 7.41634 3.33301 8.33301V16.6663C3.33301 17.583 4.08301 18.333 4.99967 18.333H14.9997C15.9163 18.333 16.6663 17.583 16.6663 16.6663V8.33301C16.6663 7.41634 15.9163 6.66634 14.9997 6.66634ZM9.99967 14.1663C9.08301 14.1663 8.33301 13.4163 8.33301 12.4997C8.33301 11.583 9.08301 10.833 9.99967 10.833C10.9163 10.833 11.6663 11.583 11.6663 12.4997C11.6663 13.4163 10.9163 14.1663 9.99967 14.1663ZM12.583 6.66634H7.41634V4.99967C7.41634 3.57467 8.57467 2.41634 9.99967 2.41634C11.4247 2.41634 12.583 3.57467 12.583 4.99967V6.66634Z" fill="black"/>
</svg>
