<svg width="20" height="20" viewBox="0 0 20 20" fill="none" xmlns="http://www.w3.org/2000/svg">
<g clip-path="url(#clip0_805_5480)">
<path d="M10 5C6.59091 5 3.67955 7.24611 2.5 10.4167C3.67955 13.5872 6.59091 15.8333 10 15.8333C13.4091 15.8333 16.3205 13.5872 17.5 10.4167C16.3205 7.24611 13.4091 5 10 5ZM10 14.0278C8.11818 14.0278 6.59091 12.41 6.59091 10.4167C6.59091 8.42333 8.11818 6.80556 10 6.80556C11.8818 6.80556 13.4091 8.42333 13.4091 10.4167C13.4091 12.41 11.8818 14.0278 10 14.0278ZM10 8.25C8.86818 8.25 7.95455 9.21778 7.95455 10.4167C7.95455 11.6156 8.86818 12.5833 10 12.5833C11.1318 12.5833 12.0455 11.6156 12.0455 10.4167C12.0455 9.21778 11.1318 8.25 10 8.25Z" fill="#C2C2C2"/>
</g>
<defs>
<clipPath id="clip0_805_5480">
<rect width="20" height="20" fill="white"/>
</clipPath>
</defs>
</svg>
