<svg width="16" height="16" viewBox="0 0 16 16" fill="none" xmlns="http://www.w3.org/2000/svg">
<path fill-rule="evenodd" clip-rule="evenodd" d="M7.99992 2.5C6.89947 2.5 5.84114 2.94951 5.05858 3.75443C4.27556 4.55982 3.83325 5.6551 3.83325 6.8C3.83325 7.33475 4.07538 8.02565 4.50101 8.80323C4.91962 9.56797 5.48403 10.3604 6.05809 11.083C6.63069 11.8039 7.20458 12.4449 7.63597 12.9063C7.77363 13.0535 7.89652 13.1822 7.99992 13.289C8.10331 13.1822 8.2262 13.0535 8.36386 12.9063C8.79526 12.4449 9.36915 11.8039 9.94175 11.083C10.5158 10.3604 11.0802 9.56797 11.4988 8.80323C11.9245 8.02565 12.1666 7.33475 12.1666 6.8C12.1666 5.6551 11.7243 4.55982 10.9413 3.75443C10.1587 2.94951 9.10037 2.5 7.99992 2.5ZM7.99992 14C7.6509 14.358 7.65083 14.358 7.65074 14.3579L7.64669 14.3539L7.63584 14.3433L7.59506 14.3029C7.55969 14.2678 7.50829 14.2163 7.44315 14.1502C7.31291 14.0179 7.1276 13.8268 6.90553 13.5893C6.46192 13.1148 5.86915 12.4529 5.27508 11.7051C4.68248 10.9591 4.08022 10.1172 3.62383 9.28338C3.17446 8.46245 2.83325 7.59065 2.83325 6.8C2.83325 5.39883 3.37427 4.0523 4.34159 3.05735C5.30937 2.06191 6.62502 1.5 7.99992 1.5C9.37482 1.5 10.6905 2.06191 11.6582 3.05735C12.6256 4.0523 13.1666 5.39883 13.1666 6.8C13.1666 7.59065 12.8254 8.46245 12.376 9.28338C11.9196 10.1172 11.3174 10.9591 10.7248 11.7051C10.1307 12.4529 9.53791 13.1148 9.09431 13.5893C8.87224 13.8268 8.68692 14.0179 8.55668 14.1502C8.49155 14.2163 8.44015 14.2678 8.40477 14.3029L8.36399 14.3433L8.35314 14.3539L8.34935 14.3576C8.34927 14.3577 8.34894 14.358 7.99992 14ZM7.99992 14L8.34935 14.3576L7.99992 14.6983L7.65074 14.3579L7.99992 14Z" fill="#757575"/>
<path d="M7.99992 7.33333C8.17673 7.33333 8.3463 7.2631 8.47132 7.13807C8.59635 7.01305 8.66659 6.84348 8.66659 6.66667C8.66659 6.48986 8.59635 6.32029 8.47132 6.19526C8.3463 6.07024 8.17673 6 7.99992 6C7.82311 6 7.65354 6.07024 7.52851 6.19526C7.40349 6.32029 7.33325 6.48986 7.33325 6.66667C7.33325 6.84348 7.40349 7.01305 7.52851 7.13807C7.65354 7.2631 7.82311 7.33333 7.99992 7.33333Z" fill="#757575"/>
<path fill-rule="evenodd" clip-rule="evenodd" d="M7.17496 5.84171C7.39375 5.62292 7.6905 5.5 7.99992 5.5C8.30934 5.5 8.60608 5.62292 8.82488 5.84171C9.04367 6.0605 9.16659 6.35725 9.16659 6.66667C9.16659 6.97609 9.04367 7.27283 8.82488 7.49162C8.60608 7.71042 8.30934 7.83333 7.99992 7.83333C7.6905 7.83333 7.39375 7.71042 7.17496 7.49162C6.95617 7.27283 6.83325 6.97609 6.83325 6.66667C6.83325 6.35725 6.95617 6.0605 7.17496 5.84171ZM7.99992 6.5C7.95572 6.5 7.91332 6.51756 7.88207 6.54882C7.85081 6.58007 7.83325 6.62246 7.83325 6.66667C7.83325 6.71087 7.85081 6.75326 7.88207 6.78452C7.91332 6.81577 7.95572 6.83333 7.99992 6.83333C8.04412 6.83333 8.08651 6.81577 8.11777 6.78452C8.14903 6.75326 8.16659 6.71087 8.16659 6.66667C8.16659 6.62246 8.14903 6.58007 8.11777 6.54882C8.08651 6.51756 8.04412 6.5 7.99992 6.5Z" fill="#757575"/>
</svg>
