<svg width="44" height="53" viewBox="0 0 44 53" fill="none" xmlns="http://www.w3.org/2000/svg">
<path d="M0.397705 5C0.397705 2.23858 2.63628 0 5.39771 0H42C43.1045 0 44 0.895431 44 2V46.1199C44 48.8813 41.7614 51.1199 39 51.1199H5.3977C2.63628 51.1199 0.397705 48.8813 0.397705 46.1199V5Z" fill="#F38B66"/>
<path d="M2.2771 45.2947C2.2771 43.1149 4.04412 41.3479 6.22386 41.3479H44V49.2414H6.22385C4.04412 49.2414 2.2771 47.4744 2.2771 45.2947Z" fill="white"/>
<rect x="2.2771" y="43.2258" width="41.7229" height="0.375882" fill="#EEEEEE"/>
<rect x="2.2771" y="45.1068" width="41.7229" height="0.375882" fill="#EEEEEE"/>
<rect x="2.2771" y="46.9847" width="41.7229" height="0.375882" fill="#EEEEEE"/>
<path d="M6.03687 53.001V46.235L6.03717 46.2345L6.0354 45.1068H11.2992V53.001L9.07474 51.5708C8.95345 51.4928 8.81227 51.4513 8.66804 51.4513C8.52381 51.4513 8.38263 51.4928 8.26134 51.5708L6.03687 53.001Z" fill="#CB5224"/>
<rect x="19.0178" y="18.8972" width="3.96973" height="20.5103" rx="1.98487" transform="rotate(-39.2772 19.0178 18.8972)" fill="#DC653B"/>
<rect x="27.6892" y="30.8925" width="5.73406" height="2.20541" rx="1.1027" transform="rotate(-39.2772 27.6892 30.8925)" fill="#FFDBCE"/>
<rect x="29.769" y="32.043" width="3.96973" height="1.32324" transform="rotate(-39.2772 29.769 32.043)" fill="#AE4A26"/>
<rect x="14.8599" y="16.5992" width="7.49838" height="8.60108" transform="rotate(-39.2772 14.8599 16.5992)" fill="#D9D9D9"/>
<rect x="14.8599" y="16.5992" width="7.49838" height="8.60108" transform="rotate(-39.2772 14.8599 16.5992)" fill="#FFDBCE"/>
<rect x="14.8599" y="16.5992" width="0.882163" height="8.60108" transform="rotate(-39.2772 14.8599 16.5992)" fill="#AE4A26"/>
<rect x="19.9812" y="12.4116" width="0.882163" height="8.60108" transform="rotate(-39.2772 19.9812 12.4116)" fill="#AE4A26"/>
<rect x="22.6355" y="9.38611" width="4.19027" height="9.92433" rx="2.09514" transform="rotate(-39.2772 22.6355 9.38611)" fill="#DC653B"/>
<rect width="4.19027" height="9.92433" rx="2.09514" transform="matrix(-0.774092 0.633073 0.633073 0.774092 12.051 18.0425)" fill="#DC653B"/>
<rect x="20.1062" y="11.1694" width="1.32324" height="10.3654" rx="0.661622" transform="rotate(-39.2772 20.1062 11.1694)" fill="#DC653B"/>
<rect width="1.32324" height="10.3654" rx="0.661622" transform="matrix(-0.774092 0.633073 0.633073 0.774092 14.3015 15.9161)" fill="#DC653B"/>
<path fill-rule="evenodd" clip-rule="evenodd" d="M23.0415 11.2772C23.4133 10.9731 23.4852 10.4439 23.2068 10.0862L28.36 16.3873L28.3595 16.3877C28.0668 16.0301 27.5241 15.9902 27.147 16.2986C26.7786 16.5999 26.7047 17.1223 26.9743 17.4798L21.8284 11.1876L21.8286 11.1875L21.8288 11.1878C22.1214 11.5456 22.6644 11.5856 23.0415 11.2772Z" fill="#AE4A26"/>
<path fill-rule="evenodd" clip-rule="evenodd" d="M12.6086 18.7241C12.9012 19.0819 13.4441 19.1219 13.8213 18.8134C14.1931 18.5094 14.2649 17.9802 13.9866 17.6225L19.1398 23.9235L19.1393 23.9239C18.8466 23.5664 18.3038 23.5264 17.9268 23.8348C17.5583 24.1361 17.4844 24.6585 17.7541 25.0161L12.6081 18.7239L12.6083 18.7237L12.6086 18.7241Z" fill="#AE4A26"/>
<rect x="21.6707" y="22.1415" width="3.96973" height="1.32324" transform="rotate(-39.2772 21.6707 22.1415)" fill="#AE4A26"/>
</svg>
