<svg width="23" height="11" viewBox="0 0 23 11" fill="none" xmlns="http://www.w3.org/2000/svg">
<path d="M0.217922 0.899999H2.07692V6.893C2.07692 7.413 2.21126 7.83333 2.47992 8.154C2.75726 8.466 3.16459 8.622 3.70192 8.622C4.23926 8.622 4.64226 8.466 4.91092 8.154C5.18826 7.83333 5.32692 7.413 5.32692 6.893V0.899999H7.18592V7.01C7.18592 7.54733 7.09926 8.01967 6.92592 8.427C6.75259 8.83433 6.50559 9.17667 6.18492 9.454C5.87292 9.73133 5.50459 9.93933 5.07992 10.078C4.65526 10.2253 4.19592 10.299 3.70192 10.299C3.19926 10.299 2.73559 10.2253 2.31092 10.078C1.88626 9.93933 1.51792 9.73133 1.20592 9.454C0.893922 9.17667 0.651255 8.83433 0.477922 8.427C0.304589 8.01967 0.217922 7.54733 0.217922 7.01V0.899999ZM11.1478 5.762H13.1108L16.0748 10H13.8778L11.1478 5.762ZM9.08077 0.899999H10.9398V10H9.08077V0.899999ZM10.2118 2.486V0.899999H12.1358C12.8551 0.899999 13.4661 1.02133 13.9688 1.264C14.4714 1.50667 14.8571 1.84467 15.1258 2.278C15.3944 2.71133 15.5288 3.21833 15.5288 3.799C15.5288 4.371 15.3944 4.878 15.1258 5.32C14.8571 5.75333 14.4714 6.09133 13.9688 6.334C13.4661 6.57667 12.8551 6.698 12.1358 6.698H10.2118V5.216H12.0188C12.3481 5.216 12.6298 5.164 12.8638 5.06C13.1064 4.94733 13.2928 4.79133 13.4228 4.592C13.5528 4.384 13.6178 4.137 13.6178 3.851C13.6178 3.565 13.5528 3.32233 13.4228 3.123C13.2928 2.915 13.1064 2.759 12.8638 2.655C12.6298 2.54233 12.3481 2.486 12.0188 2.486H10.2118ZM17.1423 0.899999H19.0013V8.375H22.6283V10H17.1423V0.899999Z" fill="white"/>
</svg>
