<svg width="16" height="16" viewBox="0 0 16 16" fill="none" xmlns="http://www.w3.org/2000/svg">
<g clip-path="url(#clip0_749_8094)">
<path fill-rule="evenodd" clip-rule="evenodd" d="M6.87713 3.26564C6.87712 3.26564 6.87713 3.26563 6.87713 3.26564L3.5438 5.28563C3.22518 5.47871 2.96173 5.75068 2.77889 6.07527C2.59605 6.39987 2.49999 6.76613 2.5 7.13868V11.3334C2.5 11.908 2.72827 12.4591 3.1346 12.8654C3.54093 13.2717 4.09203 13.5 4.66667 13.5H11.3333C11.908 13.5 12.4591 13.2717 12.8654 12.8654C13.2717 12.4591 13.5 11.908 13.5 11.3334V7.13814C13.5 7.1381 13.5 7.13817 13.5 7.13814C13.4999 6.76572 13.4038 6.3995 13.221 6.07504C13.0381 5.75054 12.7747 5.47866 12.4562 5.28564L9.12288 3.26564C9.12287 3.26563 9.12288 3.26564 9.12288 3.26564C8.78427 3.06045 8.39592 2.95197 8 2.95197C7.60408 2.95197 7.21573 3.06045 6.87713 3.26564ZM6.35888 2.41041C6.85376 2.11052 7.42135 1.95197 8 1.95197C8.57865 1.95197 9.14624 2.11052 9.64112 2.41041L12.9745 4.43041C13.44 4.71252 13.825 5.10989 14.0922 5.58415C14.3594 6.05841 14.4999 6.59354 14.5 7.13791V11.3334C14.5 12.1732 14.1664 12.9787 13.5725 13.5725C12.9786 14.1664 12.1732 14.5 11.3333 14.5H4.66667C3.82681 14.5 3.02136 14.1664 2.4275 13.5725C1.83363 12.9787 1.5 12.1732 1.5 11.3334V7.1387C1.5 7.13869 1.5 7.1387 1.5 7.1387C1.49999 6.59421 1.64038 6.0589 1.9076 5.58449C2.17483 5.11008 2.55987 4.7126 3.02553 4.43041C3.02553 4.43041 3.02554 4.43041 3.02553 4.43041L6.35888 2.41041ZM5.5 11.3334C5.5 11.0572 5.72386 10.8334 6 10.8334H10C10.2761 10.8334 10.5 11.0572 10.5 11.3334C10.5 11.6095 10.2761 11.8334 10 11.8334H6C5.72386 11.8334 5.5 11.6095 5.5 11.3334Z" fill="#757575"/>
</g>
<defs>
<clipPath id="clip0_749_8094">
<rect width="16" height="16" fill="white"/>
</clipPath>
</defs>
</svg>
