<svg xmlns="http://www.w3.org/2000/svg" width="24" height="24" viewBox="0 0 24 24" fill="none">
    <path fill-rule="evenodd" clip-rule="evenodd" d="M16.4501 7.4163L12.438 3.40422C12.1647 3.13089 11.7215 3.13089 11.4482 3.40422C11.1748 3.67755 11.1748 4.12072 11.4482 4.39405L15.4602 8.40613C15.7336 8.67947 16.1767 8.67947 16.4501 8.40613C16.7234 8.1328 16.7234 7.68964 16.4501 7.4163ZM15.5957 10.0817C16.2716 10.1931 16.9894 9.98809 17.5107 9.46679C18.3699 8.60767 18.3699 7.21476 17.5107 6.35564L13.4987 2.34356C12.6395 1.48444 11.2466 1.48444 10.3875 2.34356C9.82962 2.90144 9.63401 3.6844 9.80066 4.40013L9.5408 4.65999L4.66301 9.53778L4.38127 9.81952C3.67849 9.67206 2.91753 9.87115 2.37188 10.4168C1.51276 11.2759 1.51276 12.6688 2.37188 13.528L6.38396 17.54C7.24308 18.3992 8.63599 18.3992 9.49511 17.54C10.029 17.0061 10.2311 16.266 10.1014 15.5761L10.4014 15.2761L11.2512 14.4263L17.9329 21.5118C18.9053 22.5429 20.5374 22.5669 21.5396 21.5647C22.5414 20.5629 22.5179 18.9316 21.4877 17.959L14.4048 11.2727L15.2791 10.3983L15.5957 10.0817ZM8.43445 15.4895L4.42237 11.4775C4.14904 11.2041 3.70587 11.2041 3.43254 11.4775C3.15921 11.7508 3.1592 12.194 3.43254 12.4673L7.44462 16.4794C7.71795 16.7527 8.16112 16.7527 8.43445 16.4794C8.70778 16.206 8.70779 15.7629 8.43445 15.4895ZM10.6015 5.72065L14.2185 9.33768L9.3407 14.2155L5.72367 10.5984L10.6015 5.72065ZM13.5754 12.5524L12.5308 13.5969L13.2719 14.3827L14.3612 13.2942L13.5754 12.5524ZM15.4524 14.3244L14.3014 15.4745L19.0242 20.4827C19.4164 20.8986 20.0747 20.9082 20.4789 20.504C20.883 20.1 20.8735 19.442 20.458 19.0498L15.4524 14.3244Z" fill="#424242"/>
</svg>