<svg xmlns="http://www.w3.org/2000/svg" width="24" height="24" viewBox="0 0 24 24" fill="none">
    <path d="M14.0003 5C14.0003 4.46957 13.7896 3.96086 13.4145 3.58579C13.0395 3.21071 12.5308 3 12.0003 3C11.4699 3 10.9612 3.21071 10.5861 3.58579C10.211 3.96086 10.0003 4.46957 10.0003 5M19.2603 9.696L20.6453 18.696C20.6891 18.9808 20.6709 19.2718 20.5917 19.5489C20.5126 19.8261 20.3746 20.0828 20.187 20.3016C19.9995 20.5204 19.7668 20.6961 19.505 20.8167C19.2433 20.9372 18.9585 20.9997 18.6703 21H5.33032C5.04195 21 4.75699 20.9377 4.49496 20.8173C4.23294 20.6969 4.00005 20.5212 3.81226 20.3024C3.62448 20.0836 3.48624 19.8267 3.40702 19.5494C3.32781 19.2721 3.30949 18.981 3.35332 18.696L4.73832 9.696C4.81097 9.22359 5.0504 8.79282 5.41324 8.4817C5.77609 8.17059 6.23835 7.9997 6.71632 8H17.2843C17.7621 7.99994 18.2241 8.17094 18.5868 8.48203C18.9494 8.79312 19.1877 9.22376 19.2603 9.696Z" stroke="#424242" stroke-width="1.5" stroke-linecap="round" stroke-linejoin="round"/>
    <path d="M8.75977 14.0949L11.1902 16.5254L15.241 12.4746" stroke="#424242" stroke-width="1.5" stroke-linecap="round" stroke-linejoin="round"/>
</svg>