<svg width="20" height="20" viewBox="0 0 20 20" fill="none" xmlns="http://www.w3.org/2000/svg">
<path d="M10 17.5C14.1422 17.5 17.5 14.1422 17.5 10C17.5 5.85775 14.1422 2.5 10 2.5C5.85775 2.5 2.5 5.85775 2.5 10C2.5 14.1422 5.85775 17.5 10 17.5Z" fill="#424242" stroke="#424242" stroke-width="1.5" stroke-linecap="round" stroke-linejoin="round"/>
<path fill-rule="evenodd" clip-rule="evenodd" d="M10 5.625C10.3452 5.625 10.625 5.90482 10.625 6.25V10.75C10.625 11.0952 10.3452 11.375 10 11.375C9.65483 11.375 9.375 11.0952 9.375 10.75V6.25C9.375 5.90482 9.65483 5.625 10 5.625ZM10.4279 13.2868C10.6833 13.519 10.7022 13.9142 10.47 14.1697L10.4625 14.1779C10.2303 14.4333 9.835 14.4522 9.57959 14.22C9.32418 13.9878 9.30535 13.5925 9.53754 13.3371L9.54504 13.3288C9.77722 13.0734 10.1725 13.0546 10.4279 13.2868Z" fill="white"/>
</svg>
