<svg xmlns="http://www.w3.org/2000/svg" width="25" height="24" viewBox="0 0 25 24" fill="none">
    <path d="M20.5 11C20.5 8.87827 19.6571 6.84344 18.1569 5.34315C16.6566 3.84285 14.6217 3 12.5 3C10.3783 3 8.34344 3.84285 6.84315 5.34315C5.34285 6.84344 4.5 8.87827 4.5 11" stroke="#424242" stroke-width="1.5" stroke-linecap="round" stroke-linejoin="round"/>
    <path d="M20.5 18.0002V18.5002C20.5 19.0307 20.2893 19.5394 19.9142 19.9145C19.5391 20.2895 19.0304 20.5002 18.5 20.5002H15M2.5 15.4382V13.5622C2.50007 13.1163 2.6492 12.6831 2.9237 12.3316C3.19821 11.9801 3.58232 11.7304 4.015 11.6222L5.755 11.1862C5.84342 11.1642 5.93569 11.1626 6.02481 11.1816C6.11393 11.2005 6.19757 11.2395 6.26937 11.2956C6.34118 11.3517 6.39926 11.4234 6.43922 11.5053C6.47918 11.5872 6.49997 11.6771 6.5 11.7682V17.2312C6.50016 17.3226 6.47947 17.4127 6.43952 17.4948C6.39957 17.5769 6.34141 17.6488 6.26946 17.705C6.19752 17.7613 6.11369 17.8003 6.02436 17.8192C5.93503 17.8382 5.84257 17.8365 5.754 17.8142L4.014 17.3792C3.58151 17.2709 3.19762 17.0211 2.92331 16.6697C2.649 16.3182 2.50001 15.8851 2.5 15.4392V15.4382ZM22.5 15.4382V13.5622C22.4999 13.1163 22.3508 12.6831 22.0763 12.3316C21.8018 11.9801 21.4177 11.7304 20.985 11.6222L19.245 11.1862C19.1566 11.1642 19.0643 11.1626 18.9752 11.1816C18.8861 11.2005 18.8024 11.2395 18.7306 11.2956C18.6588 11.3517 18.6007 11.4234 18.5608 11.5053C18.5208 11.5872 18.5 11.6771 18.5 11.7682V17.2312C18.4999 17.3224 18.5206 17.4125 18.5604 17.4945C18.6003 17.5765 18.6584 17.6483 18.7302 17.7045C18.8021 17.7607 18.8857 17.7998 18.9749 17.8188C19.0641 17.8379 19.1565 17.8363 19.245 17.8142L20.985 17.3792C21.4177 17.2711 21.8018 17.0214 22.0763 16.6699C22.3508 16.3184 22.4999 15.8852 22.5 15.4392V15.4382Z" stroke="#424242" stroke-width="1.5"/>
    <path d="M14 22H11C10.6022 22 10.2206 21.842 9.93934 21.5607C9.65804 21.2794 9.5 20.8978 9.5 20.5C9.5 20.1022 9.65804 19.7206 9.93934 19.4393C10.2206 19.158 10.6022 19 11 19H14C14.3978 19 14.7794 19.158 15.0607 19.4393C15.342 19.7206 15.5 20.1022 15.5 20.5C15.5 20.8978 15.342 21.2794 15.0607 21.5607C14.7794 21.842 14.3978 22 14 22Z" stroke="#424242" stroke-width="1.5"/>
</svg>