<svg width="16" height="16" viewBox="0 0 16 16" fill="none" xmlns="http://www.w3.org/2000/svg">
<g clip-path="url(#clip0_878_190)">
<path fill-rule="evenodd" clip-rule="evenodd" d="M8 3.5C8.27614 3.5 8.5 3.72386 8.5 4V7.5H12C12.2761 7.5 12.5 7.72386 12.5 8C12.5 8.27614 12.2761 8.5 12 8.5H8C7.72386 8.5 7.5 8.27614 7.5 8V4C7.5 3.72386 7.72386 3.5 8 3.5Z" fill="#757575"/>
<path fill-rule="evenodd" clip-rule="evenodd" d="M0.833252 7.99998C0.833252 4.04184 4.04178 0.833313 7.99992 0.833313C11.9581 0.833313 15.1666 4.04184 15.1666 7.99998C15.1666 11.9581 11.9581 15.1666 7.99992 15.1666C4.04178 15.1666 0.833252 11.9581 0.833252 7.99998ZM7.99992 1.83331C4.59406 1.83331 1.83325 4.59412 1.83325 7.99998C1.83325 11.4058 4.59406 14.1666 7.99992 14.1666C11.4058 14.1666 14.1666 11.4058 14.1666 7.99998C14.1666 4.59412 11.4058 1.83331 7.99992 1.83331Z" fill="#757575"/>
</g>
<defs>
<clipPath id="clip0_878_190">
<rect width="16" height="16" fill="white"/>
</clipPath>
</defs>
</svg>
