<svg width="24" height="24" viewBox="0 0 24 24" fill="none" xmlns="http://www.w3.org/2000/svg">
<path d="M12 21.001C16.9707 21.001 21 16.9717 21 12.001C21 7.03028 16.9707 3.00098 12 3.00098C7.0293 3.00098 3 7.03028 3 12.001C3 16.9717 7.0293 21.001 12 21.001Z" fill="#FFC73C" stroke="#FFC73C" stroke-width="1.5" stroke-linecap="round" stroke-linejoin="round"/>
<path fill-rule="evenodd" clip-rule="evenodd" d="M12 6.75098C12.4142 6.75098 12.75 7.08676 12.75 7.50098V12.901C12.75 13.3152 12.4142 13.651 12 13.651C11.5858 13.651 11.25 13.3152 11.25 12.901V7.50098C11.25 7.08676 11.5858 6.75098 12 6.75098ZM12.5135 15.9451C12.82 16.2237 12.8426 16.6981 12.564 17.0046L12.555 17.0145C12.2763 17.321 11.802 17.3436 11.4955 17.0649C11.189 16.7863 11.1664 16.312 11.445 16.0055L11.454 15.9956C11.7327 15.6891 12.207 15.6665 12.5135 15.9451Z" fill="white"/>
</svg>
