<svg width="24" height="24" viewBox="0 0 24 24" fill="none" xmlns="http://www.w3.org/2000/svg">
<g clip-path="url(#clip0_1426_6671)">
<path fill-rule="evenodd" clip-rule="evenodd" d="M1.25 12C1.25 6.06279 6.06279 1.25 12 1.25C17.9372 1.25 22.75 6.06279 22.75 12C22.75 17.9372 17.9372 22.75 12 22.75C6.06279 22.75 1.25 17.9372 1.25 12ZM12 2.75C6.89121 2.75 2.75 6.89121 2.75 12C2.75 17.1088 6.89121 21.25 12 21.25C17.1088 21.25 21.25 17.1088 21.25 12C21.25 6.89121 17.1088 2.75 12 2.75Z" fill="black"/>
<path fill-rule="evenodd" clip-rule="evenodd" d="M10.242 7.03806C9.80132 7.41196 9.48706 7.98001 9.48706 8.80225C9.48706 9.21647 9.15127 9.55225 8.73706 9.55225C8.32285 9.55225 7.98706 9.21647 7.98706 8.80225C7.98706 7.548 8.48852 6.55867 9.27146 5.89432C10.0381 5.2438 11.0336 4.9375 11.9999 4.9375C12.9663 4.9375 13.9618 5.2438 14.7284 5.89432C15.5114 6.55867 16.0128 7.548 16.0128 8.80225C16.0128 9.68467 15.7875 10.3498 15.4234 10.896C15.1145 11.3593 14.713 11.7179 14.3851 12.0106C14.3496 12.0423 14.315 12.0732 14.2815 12.1034C13.916 12.4323 13.6262 12.7155 13.4128 13.0925C13.2068 13.4566 13.0467 13.9564 13.0467 14.7346C13.0467 15.1488 12.7109 15.4846 12.2967 15.4846C11.8824 15.4846 11.5467 15.1488 11.5467 14.7346C11.5467 13.733 11.7573 12.9722 12.1074 12.3537C12.4502 11.7481 12.9019 11.3269 13.278 10.9884C13.3086 10.9609 13.3385 10.9341 13.3678 10.9078C13.7195 10.592 13.9779 10.36 14.1753 10.0639C14.3674 9.77589 14.5128 9.40292 14.5128 8.80225C14.5128 7.98001 14.1986 7.41196 13.7579 7.03806C13.301 6.65032 12.665 6.4375 11.9999 6.4375C11.3349 6.4375 10.6989 6.65032 10.242 7.03806ZM12.8177 17.748C13.1242 18.0266 13.1468 18.5009 12.8681 18.8074L12.8594 18.817C12.5808 19.1235 12.1065 19.1461 11.8 18.8674C11.4935 18.5888 11.4709 18.1145 11.7495 17.808L11.7582 17.7984C12.0369 17.4919 12.5112 17.4693 12.8177 17.748Z" fill="black"/>
</g>
<defs>
<clipPath id="clip0_1426_6671">
<rect width="24" height="24" fill="white"/>
</clipPath>
</defs>
</svg>
