<svg width="24" height="24" viewBox="0 0 24 24" fill="none" xmlns="http://www.w3.org/2000/svg">
<g clip-path="url(#clip0_1738_8936)">
<path fill-rule="evenodd" clip-rule="evenodd" d="M10.981 1.25C10.6403 1.25 10.3424 1.47962 10.2557 1.80909L9.71764 3.85324L7.84886 4.64102L6.49852 3.43966C6.20174 3.17562 5.75056 3.18878 5.46967 3.46967L3.46967 5.46967C3.19794 5.7414 3.17556 6.17454 3.41782 6.47283L4.59117 7.91751L3.8244 9.80391L1.82949 10.2696C1.49009 10.3489 1.25 10.6515 1.25 11V13C1.25 13.3382 1.47634 13.6346 1.80261 13.7236L3.85162 14.2825L4.64078 16.1546L3.44024 17.5008C3.17563 17.7976 3.18854 18.2492 3.46967 18.5303L5.46967 20.5303C5.74176 20.8024 6.17563 20.8245 6.47388 20.5813L7.91871 19.4035L9.76231 20.1619L10.2728 22.1836C10.3569 22.5167 10.6565 22.75 11 22.75H13C13.3434 22.75 13.6429 22.5168 13.7271 22.184L14.2388 20.1619L16.1368 19.3757C16.3306 19.5356 16.5686 19.7395 16.8007 19.9416C16.989 20.1055 17.1638 20.2599 17.2917 20.3734C17.3556 20.4301 17.4076 20.4765 17.4436 20.5086L17.4992 20.5583C17.7957 20.8243 18.2486 20.8121 18.5303 20.5303L20.5303 18.5303C20.8064 18.2543 20.8245 17.8127 20.572 17.5149L19.384 16.114L20.1641 14.23L22.1886 13.7039C22.5192 13.618 22.75 13.3196 22.75 12.978V11C22.75 10.657 22.5173 10.3577 22.1849 10.2732L20.1712 9.76083L19.3927 7.88025L20.5728 6.48416C20.8245 6.18637 20.806 5.74538 20.5303 5.46967L18.5303 3.46967C18.2535 3.19283 17.8103 3.17551 17.5127 3.42989L16.1262 4.61501L14.1885 3.8183L13.6604 1.80933C13.5737 1.47974 13.2758 1.25 12.935 1.25H10.981ZM12 8.25C11.0054 8.25 10.0516 8.64509 9.34835 9.34835C8.64509 10.0516 8.25 11.0054 8.25 12C8.25 12.9946 8.64509 13.9484 9.34835 14.6517C10.0516 15.3549 11.0054 15.75 12 15.75C12.9946 15.75 13.9484 15.3549 14.6517 14.6517C15.3549 13.9484 15.75 12.9946 15.75 12C15.75 11.0054 15.3549 10.0516 14.6517 9.34835C13.9484 8.64509 12.9946 8.25 12 8.25Z" fill="black"/>
</g>
<defs>
<clipPath id="clip0_1738_8936">
<rect width="24" height="24" fill="white"/>
</clipPath>
</defs>
</svg>
