<svg width="24" height="24" viewBox="0 0 24 24" fill="none" xmlns="http://www.w3.org/2000/svg">
<path d="M12 3C16.9707 3 21 7.0293 21 12C21 16.9707 16.9707 21 12 21C7.0293 21 3 16.9707 3 12C3 7.0293 7.0293 3 12 3ZM12 6.6C11.7613 6.6 11.5324 6.69482 11.3636 6.8636C11.1948 7.03239 11.1 7.2613 11.1 7.5V12C11.1001 12.2387 11.1949 12.4676 11.3637 12.6363L14.0637 15.3363C14.2334 15.5002 14.4608 15.591 14.6968 15.5889C14.9327 15.5869 15.1585 15.4922 15.3253 15.3253C15.4922 15.1585 15.5869 14.9327 15.5889 14.6968C15.591 14.4608 15.5002 14.2334 15.3363 14.0637L12.9 11.6274V7.5C12.9 7.2613 12.8052 7.03239 12.6364 6.8636C12.4676 6.69482 12.2387 6.6 12 6.6Z" fill="#000"/>
</svg>
