<svg width="24" height="24" viewBox="0 0 24 24" fill="none" xmlns="http://www.w3.org/2000/svg">
<g clip-path="url(#clip0_805_5409)">
<path d="M2 15V9C2 7.93913 2.42143 6.92172 3.17157 6.17157C3.92172 5.42143 4.93913 5 6 5H18C19.0609 5 20.0783 5.42143 20.8284 6.17157C21.5786 6.92172 22 7.93913 22 9V15C22 16.0609 21.5786 17.0783 20.8284 17.8284C20.0783 18.5786 19.0609 19 18 19H6C4.93913 19 3.92172 18.5786 3.17157 17.8284C2.42143 17.0783 2 16.0609 2 15Z" fill="#F5F5F5" stroke="#9E9E9E" stroke-width="1.5"/>
<path d="M6.75 12H16.75M16.75 12L14 14.75M16.75 12L14 9.25" stroke="#9E9E9E" stroke-width="1.5" stroke-linecap="round" stroke-linejoin="round"/>
</g>
<defs>
<clipPath id="clip0_805_5409">
<rect width="24" height="24" fill="white"/>
</clipPath>
</defs>
</svg>
