<svg width="20" height="20" viewBox="0 0 20 20" fill="none" xmlns="http://www.w3.org/2000/svg">
<path d="M4.1665 17.5V4.16667C4.1665 3.72464 4.3421 3.30072 4.65466 2.98816C4.96722 2.67559 5.39114 2.5 5.83317 2.5H14.1665C14.6085 2.5 15.0325 2.67559 15.345 2.98816C15.6576 3.30072 15.8332 3.72464 15.8332 4.16667V17.5L10.9015 14.3292C10.6326 14.1562 10.3196 14.0642 9.99984 14.0642C9.68009 14.0642 9.36709 14.1562 9.09817 14.3292L4.1665 17.5Z" fill="#000000"/>
<path fill-rule="evenodd" clip-rule="evenodd" d="M5.83317 3.125C5.5569 3.125 5.29195 3.23475 5.0966 3.4301C4.90125 3.62545 4.7915 3.8904 4.7915 4.16667V16.3551L8.76005 13.8035C8.76008 13.8035 8.76012 13.8035 8.76016 13.8035C9.1299 13.5656 9.56023 13.4392 9.99984 13.4392C10.4394 13.4392 10.8698 13.5656 11.2395 13.8035C11.2396 13.8035 11.2396 13.8035 11.2396 13.8035L15.2082 16.3551V4.16667C15.2082 3.8904 15.0984 3.62545 14.9031 3.4301C14.7077 3.23475 14.4428 3.125 14.1665 3.125H5.83317ZM4.21272 2.54621C4.64249 2.11644 5.22538 1.875 5.83317 1.875H14.1665C14.7743 1.875 15.3572 2.11644 15.787 2.54621C16.2167 2.97598 16.4582 3.55888 16.4582 4.16667V17.5C16.4582 17.7286 16.3333 17.939 16.1326 18.0486C15.932 18.1581 15.6875 18.1494 15.4952 18.0257L10.5635 14.8549L10.5634 14.8548C10.3953 14.7467 10.1997 14.6892 9.99984 14.6892C9.79999 14.6892 9.60437 14.7467 9.4363 14.8548L9.43618 14.8549L4.50451 18.0257C4.3122 18.1494 4.06771 18.1581 3.86703 18.0486C3.66635 17.939 3.5415 17.7286 3.5415 17.5V4.16667C3.5415 3.55888 3.78295 2.97598 4.21272 2.54621Z" fill="#000000"/>
</svg>
