<svg width="20" height="20" viewBox="0 0 20 20" fill="none" xmlns="http://www.w3.org/2000/svg">
<path fill-rule="evenodd" clip-rule="evenodd" d="M10.4288 12.8701C10.6842 13.1022 10.703 13.4975 10.4708 13.7529L10.4625 13.7621C10.2303 14.0175 9.83501 14.0363 9.57959 13.8042C9.32418 13.572 9.30535 13.1767 9.53753 12.9213L9.54587 12.9121C9.77806 12.6567 10.1733 12.6379 10.4288 12.8701Z" fill="white"/>
<path fill-rule="evenodd" clip-rule="evenodd" d="M6.4585 3.95825V16.0416H13.5418V3.95825H6.4585ZM5.538 3.03776C5.74898 2.82678 6.03513 2.70825 6.3335 2.70825H13.6668C13.8146 2.70825 13.9609 2.73735 14.0973 2.79389C14.2338 2.85042 14.3579 2.93329 14.4623 3.03776C14.5668 3.14222 14.6497 3.26624 14.7062 3.40273C14.7627 3.53923 14.7918 3.68552 14.7918 3.83325V16.1666C14.7918 16.3143 14.7627 16.4606 14.7062 16.5971C14.6497 16.7336 14.5668 16.8576 14.4623 16.9621C14.3579 17.0665 14.2338 17.1494 14.0973 17.2059C13.9609 17.2625 13.8146 17.2916 13.6668 17.2916H6.3335C6.03513 17.2916 5.74898 17.1731 5.538 16.9621C5.32702 16.7511 5.2085 16.465 5.2085 16.1666V3.83325C5.2085 3.53488 5.32702 3.24874 5.538 3.03776Z" fill="white"/>
</svg>
