<svg width="16" height="16" viewBox="0 0 16 16" fill="none" xmlns="http://www.w3.org/2000/svg">
<path fill-rule="evenodd" clip-rule="evenodd" d="M1.51801 3.32379C1.36609 2.31266 2.17171 1.5 3.13168 1.5H5.40459C5.61331 1.5 5.80007 1.62965 5.87304 1.8252L6.75469 4.18789C6.78635 4.27274 6.79437 4.36461 6.77789 4.45367L6.33808 6.83044C6.87526 8.09629 7.75892 8.95025 9.22675 9.71798L11.5518 9.26402C11.6439 9.24604 11.7392 9.25433 11.8268 9.28796L14.1791 10.1909C14.3724 10.2651 14.4999 10.4507 14.4999 10.6577V12.8458C14.4999 13.8586 13.612 14.6924 12.5612 14.4625L12.5609 14.4624C10.7082 14.0558 7.26888 13.0224 4.85884 10.5942C2.5498 8.26772 1.77748 5.05603 1.51801 3.32379ZM3.13168 2.5C2.72473 2.5 2.45425 2.82517 2.50693 3.17534L2.50698 3.17566C2.75651 4.84154 3.48694 7.79238 5.56859 9.88972C7.76981 12.1075 10.9729 13.0901 12.7753 13.4856C13.1362 13.5644 13.4999 13.2895 13.4999 12.8458V11.0013L11.6025 10.273L9.24818 10.7327C9.13908 10.754 9.02598 10.7383 8.92677 10.6882C7.16542 9.79765 6.01808 8.73894 5.35495 7.06861C5.32022 6.98115 5.31089 6.88567 5.32801 6.79314L5.7694 4.40781L5.05749 2.5H3.13168Z" fill="#757575"/>
</svg>
