<svg width="24" height="24" viewBox="0 0 24 24" fill="none" xmlns="http://www.w3.org/2000/svg">
<path fill-rule="evenodd" clip-rule="evenodd" d="M7 3.75C6.66848 3.75 6.35054 3.8817 6.11612 4.11612C5.8817 4.35054 5.75 4.66848 5.75 5V19.6261L10.5123 16.5642C10.5123 16.5642 10.5123 16.5642 10.5124 16.5641C10.9561 16.2788 11.4725 16.127 12 16.127C12.5275 16.127 13.0439 16.2788 13.4876 16.5641C13.4877 16.5642 13.4877 16.5642 13.4878 16.5642L18.25 19.6261V5C18.25 4.66848 18.1183 4.35054 17.8839 4.11612C17.6495 3.8817 17.3315 3.75 17 3.75H7ZM5.05546 3.05546C5.57118 2.53973 6.27065 2.25 7 2.25H17C17.7293 2.25 18.4288 2.53973 18.9445 3.05546C19.4603 3.57118 19.75 4.27065 19.75 5V21C19.75 21.2744 19.6002 21.5268 19.3594 21.6583C19.1186 21.7898 18.8252 21.7792 18.5944 21.6309L12.6764 17.8259L12.6763 17.8258C12.4746 17.696 12.2398 17.627 12 17.627C11.7602 17.627 11.5254 17.696 11.3238 17.8258L11.3236 17.8259L5.40561 21.6309C5.17483 21.7792 4.88145 21.7898 4.64063 21.6583C4.39981 21.5268 4.25 21.2744 4.25 21V5C4.25 4.27065 4.53973 3.57118 5.05546 3.05546Z" fill="#000000"/>
</svg>
